<svg width="14" height="12" viewBox="0 0 14 12" fill="none" xmlns="http://www.w3.org/2000/svg">
<path d="M13.7188 6.71875C13.9063 6.51042 14 6.27083 14 6C14 5.72917 13.9063 5.48958 13.7188 5.28125L8.71877 0.28125C8.51043 0.09375 8.27085 0 8.00002 0C7.72918 0 7.4896 0.09375 7.28127 0.28125C7.09377 0.489583 7.00002 0.729167 7.00002 1C7.00002 1.27083 7.09377 1.51042 7.28127 1.71875L10.5938 5H1.00002C0.708349 5 0.468765 5.09375 0.281265 5.28125C0.0937653 5.46875 1.52588e-05 5.70833 1.52588e-05 6C1.52588e-05 6.29167 0.0937653 6.53125 0.281265 6.71875C0.468765 6.90625 0.708349 7 1.00002 7H10.5938L7.28127 10.2812C7.09377 10.4896 7.00002 10.7292 7.00002 11C7.00002 11.2708 7.09377 11.5104 7.28127 11.7188C7.4896 11.9062 7.72918 12 8.00002 12C8.27085 12 8.51043 11.9062 8.71877 11.7188L13.7188 6.71875Z" fill="white"/>
</svg>
